<svg width="28" height="24" viewBox="0 0 28 24" fill="none" xmlns="http://www.w3.org/2000/svg">
<path fill-rule="evenodd" clip-rule="evenodd" d="M22.9508 1.67623L14.0276 10.7947L10.212 6.82385C9.35122 5.95419 7.80085 5.94419 6.8257 6.83209L6.82185 6.8356L6.81782 6.8389C5.86951 7.61603 5.85738 9.00608 6.8257 9.88777L6.83176 9.89329L13.0071 16.2733L14.0327 17.2872L15.4283 15.9059L26.2323 4.94085C26.6804 5.84283 26.9535 6.83794 27.0186 7.85143C27.2218 11.2103 25.0797 13.4062 22.9659 15.5733C22.7453 15.7995 22.5249 16.0253 22.3076 16.2522C19.3913 19.1979 15.858 22.4709 14.512 23.671C14.2316 23.9438 13.7269 23.9438 13.4465 23.671C12.2126 22.5255 9.12803 19.5252 6.2117 16.4704C5.84938 16.0844 5.46982 15.701 5.08769 15.315C2.98556 13.1917 0.806117 10.9903 0.995944 7.85143C1.10811 6.16037 1.83719 4.46931 3.01495 3.1601C4.02445 2.12364 5.37045 1.35994 6.82862 1.08719C8.34287 0.814436 9.80103 1.14174 11.091 1.90544C11.8414 2.34978 12.4021 2.94184 12.9054 3.59569L12.9055 3.59569C13.2892 4.09421 13.4811 4.34347 13.681 4.42626C13.8782 4.50792 14.0539 4.51317 14.2556 4.44343C14.4601 4.37273 14.6669 4.13494 15.0805 3.65935C15.6598 2.99331 16.3699 2.26649 16.9797 1.90544C18.2135 1.14174 19.6717 0.814436 21.186 1.08719C21.7997 1.20199 22.3936 1.40376 22.9508 1.67623ZM14.0288 10.5087L14.0313 10.5061L10.3622 6.6878C9.70779 6.0257 8.70041 5.82269 7.79458 6.07878C8.6994 5.82438 9.70483 6.02775 10.3583 6.6889L14.0288 10.5087Z" fill="black"/>
</svg>
