<svg width="33" height="29" viewBox="0 0 33 29" fill="none" xmlns="http://www.w3.org/2000/svg">
<path fill-rule="evenodd" clip-rule="evenodd" d="M27.9596 1.2179L16.9446 12.474L12.2336 7.57128C11.1708 6.49754 9.25664 6.48519 8.05266 7.58145L8.04791 7.58578L8.04293 7.58986C6.87208 8.54935 6.85711 10.2656 8.05266 11.3542L8.06014 11.361L15.7724 19.3289L16.9482 20.4913L18.7242 18.7336L32.0119 5.24787C32.5656 6.36189 32.903 7.59103 32.9834 8.84289C33.2342 12.99 30.5895 15.7012 27.9796 18.3768C27.7072 18.6561 27.4352 18.9349 27.1669 19.215C23.5662 22.852 19.2038 26.8931 17.542 28.3748C17.1958 28.7116 16.5726 28.7116 16.2263 28.3748C14.703 26.9604 10.8945 23.2561 7.29384 19.4844C6.8465 19.0079 6.37786 18.5345 5.90607 18.058C3.31064 15.4363 0.619755 12.7183 0.854128 8.84289C0.992616 6.755 1.89279 4.6671 3.34692 3.05067C4.59331 1.77099 6.25517 0.828074 8.05552 0.491317C9.92512 0.15456 11.7255 0.558668 13.3181 1.50159C14.2447 2.0502 14.9369 2.7812 15.5584 3.58847C16.0322 4.20398 16.2691 4.51174 16.5159 4.61395C16.7593 4.71477 16.9764 4.72126 17.2254 4.63516C17.4778 4.54786 17.7332 4.25427 18.2439 3.66708C18.9591 2.84473 19.8358 1.94736 20.5887 1.50159C22.1121 0.558668 23.9124 0.15456 25.782 0.491317C26.5393 0.632957 27.272 0.881832 27.9596 1.2179ZM16.946 12.1208L16.9472 12.1196L12.4165 7.40462C11.821 6.80222 10.989 6.50762 10.1448 6.52083C10.9882 6.50817 11.8194 6.80278 12.4143 7.40466L16.946 12.1208Z" fill="black"/>
</svg>
