<svg width="23" height="26" viewBox="0 0 23 26" fill="none" xmlns="http://www.w3.org/2000/svg">
<path d="M5.91529 19.5757C4.97215 19.5757 4.05896 19.5757 3.15075 19.5757C2.13276 19.5707 1.28444 18.902 1.05988 17.9139C1.01497 17.7243 1.00499 17.5197 1.00499 17.3201C1 12.4996 1 7.67916 1 2.85868C1 1.49637 1.90821 0.598145 3.26553 0.598145C7.14786 0.598145 11.0302 0.598145 14.9175 0.598145C16.2499 0.598145 17.1631 1.51633 17.1631 2.85369C17.1631 3.96649 17.1631 5.0743 17.1631 6.22703C17.2629 6.22703 17.3527 6.22703 17.4375 6.22703C18.2409 6.22703 19.0493 6.22703 19.8528 6.22703C21.1602 6.22703 22.0684 7.13024 22.0734 8.44764C22.0784 9.76005 22.0734 11.0725 22.0734 12.3799C22.0734 15.9079 22.0734 19.4359 22.0734 22.964C22.0734 24.0418 21.4646 24.8652 20.4765 25.1247C20.2769 25.1746 20.0673 25.1996 19.8627 25.1996C15.9555 25.2045 12.0482 25.2045 8.13591 25.2045C6.83348 25.2045 5.91529 24.2814 5.9103 22.9789C5.9103 21.8462 5.91529 20.7284 5.91529 19.5757ZM8.04608 23.0538C12.0182 23.0538 15.9804 23.0538 19.9376 23.0538C19.9376 18.1385 19.9376 13.2482 19.9376 8.34784C15.9654 8.34784 12.0132 8.34784 8.04608 8.34784C8.04608 13.2531 8.04608 18.1485 8.04608 23.0538ZM15.0273 2.73892C11.0402 2.73892 7.08798 2.73892 3.13578 2.73892C3.13578 7.65421 3.13578 12.5445 3.13578 17.4399C4.06894 17.4399 4.98213 17.4399 5.91529 17.4399C5.91529 17.3201 5.91529 17.2203 5.91529 17.1205C5.91529 14.2162 5.91529 11.312 5.91529 8.40273C5.91529 7.14521 6.84845 6.21705 8.10097 6.21705C10.3066 6.21705 12.5173 6.21705 14.7229 6.21705C14.8227 6.21705 14.9175 6.21705 15.0273 6.21705C15.0273 5.04935 15.0273 3.90162 15.0273 2.73892Z" fill="black" stroke="black"/>
</svg>
